# xmcd
#
# Track frame offsets: 
#        150
#        19531
#        34120
#        49949
#        67324
#        80923
#        96850
#        108694
#        122307
#        134917
#        147723
#        163495
#        177888
#
# Disc length: 2561 seconds
#
# Revision: 0
# Processed by: cddbd v1.5.2PL0 Copyright (c) Steve Scherf et al.
# Submitted via: ExactAudioCopy v0.95b3
#
DISCID=cb09ff0d
DTITLE=Various Artist - Compilation Album
DYEAR=2006
DGENRE=Bluegrass
TTITLE0=Pat Flynn - King Of Babylon
TTITLE1=Jack Cooke - That's How The Cookie Crumbles
TTITLE2=Sally Jones - A Sound I Hear
TTITLE3=The John Cowan Band - Carla's Got A New Tattoo
TTITLE4=Nothin' Fancy - How Can I Lose
TTITLE5=Larry Stephenson - I Need The Prayers
TTITLE6=BlueRidge - He Will Set Your Fields On Fire
TTITLE7=Special Consensus - What Will Become Of Me
TTITLE8=The Village Singers - Who Put The Color In The Rose
TTITLE9=Continental Divide - If a Train Left For Memphis
TTITLE10=The Churchmen - Lord It's a Hard Road Home
TTITLE11=The Circuit Riders - Powderfinger
TTITLE12=Wildfire - Grapes On The Vine
EXTD=
EXTT0=
EXTT1=
EXTT2=
EXTT3=
EXTT4=
EXTT5=
EXTT6=
EXTT7=
EXTT8=
EXTT9=
EXTT10=
EXTT11=
EXTT12=
PLAYORDER=
